# xmcd
#
# Track frame offsets:
#	300
#	13487
#	25001
#	37992
#	51951
#	78891
#	92572
#	102593
#	121943
#	133629
#
# Disc length: 2047 seconds
#
# Revision: 0
# Processed by: cddbd v1.4PL0 Copyright (c) Steve Scherf et al.
# Submitted via: audiograbber 1.81.02
#
DISCID=7b07fb0a
DTITLE=Emmylou Harris - Gliding Bird
DYEAR=1900
DGENRE=Country
TTITLE0=Emmylou Harris - I'll Be Your Baby Tonight.wav
TTITLE1=Emmylou Harris - Fugue For The Fox.wav
TTITLE2=Emmylou Harris - I Saw The Light.wav
TTITLE3=Emmylou Harris - Clocks.wav
TTITLE4=Emmylou Harris - Black Gypsy.wav
TTITLE5=Emmylou Harris - Gliding Bird.wav
TTITLE6=Emmylou Harris - Everybody's Talkin.wav
TTITLE7=Emmylou Harris - Bobbie's Gone.wav
TTITLE8=Emmylou Harris - I'll Never Fall In Love Again.wav
TTITLE9=Emmylou Harris - Waltz Of The Magic Man.wav
EXTD=
EXTT0=
EXTT1=
EXTT2=
EXTT3=
EXTT4=
EXTT5=
EXTT6=
EXTT7=
EXTT8=
EXTT9=
PLAYORDER=
